<svg width="549" height="37" viewBox="0 0 549 37" fill="none" xmlns="http://www.w3.org/2000/svg">
<path d="M1 1.37402H29.9734C40.0734 1.37402 42.5179 6.38473 42.5179 13.1094V16.0409C42.5179 21.1452 40.2629 27.0176 32.7495 27.0176H11.6305V35.6248H1V1.37402ZM11.6305 18.5041H28.1543C30.6461 18.5041 31.6031 16.8932 31.6031 14.8608V13.5402C31.6031 11.2175 30.4567 9.8969 27.2448 9.8969H11.6305V18.5041V18.5041Z" fill="white" stroke="black" stroke-width="0.319079"/>
<path d="M48.2588 1.37402H86.1858V9.32559H58.8893V14.814H84.7456V21.9132H58.8893V27.4016H86.8016V35.6341H48.2588V1.37402Z" fill="white" stroke="black" stroke-width="0.319079"/>
<path d="M93.2065 1.37402H125.288C133.474 1.37402 135.681 5.39195 135.681 11.5453V13.7182C135.681 18.3074 134.63 21.0047 129.741 22.138V22.2317C132.896 22.803 135.53 24.1704 135.53 29.7992V35.6154H124.899V31.5038C124.899 27.9073 123.847 26.7272 120.541 26.7272H103.828V35.6248H93.197V1.37402H93.2065ZM103.837 18.2137H121.412C124.283 18.2137 125.335 17.0805 125.335 14.6173V13.484C125.335 10.4589 123.8 9.88754 120.446 9.88754H103.828V18.2137H103.837Z" fill="white" stroke="black" stroke-width="0.319079"/>
<path d="M142.855 1.37402H179.057V9.60656H153.485V15.994H177.854V23.9456H153.485V35.6341H142.855V1.37402Z" fill="white" stroke="black" stroke-width="0.319079"/>
<path d="M184.704 13.391C184.704 3.36018 190.398 1 199.977 1H217.022C226.601 1 232.295 3.36955 232.295 13.391V23.609C232.295 33.6398 226.601 36 217.022 36H199.977C190.398 36 184.704 33.6305 184.704 23.609V13.391ZM195.619 20.3404C195.619 25.3043 196.67 27.1961 201.701 27.1961H215.297C220.328 27.1961 221.38 25.3043 221.38 20.3404V16.6503C221.38 12.3888 220.329 9.79449 214.729 9.79449H202.279C196.68 9.79449 195.619 12.3982 195.619 16.6503V20.3404V20.3404Z" fill="white" stroke="black" stroke-width="0.319079"/>
<path d="M238.709 1.37402H270.79C278.976 1.37402 281.184 5.39195 281.184 11.5453V13.7182C281.184 18.3074 280.132 21.0047 275.243 22.138V22.2317C278.398 22.803 281.032 24.1704 281.032 29.7992V35.6154H270.401V31.5038C270.401 27.9073 269.35 26.7272 266.043 26.7272H249.33V35.6248H238.699V1.37402H238.709ZM249.339 18.2137H266.915C269.786 18.2137 270.837 17.0805 270.837 14.6173V13.484C270.837 10.4589 269.302 9.88754 265.948 9.88754H249.33V18.2137H249.339Z" fill="white" stroke="black" stroke-width="0.319079"/>
<path d="M288.356 1.37402H304.681L316.695 23.4211L328.718 1.37402H345.043V35.6248H334.696V11.0302H334.602L320.664 35.6248H312.715L298.778 11.0302H298.683V35.6248H288.337V1.37402H288.356Z" fill="white" stroke="black" stroke-width="0.319079"/>
<path d="M367.592 1.37402H381.435L400.488 35.6248H388.664L385.357 29.5745H363.812L360.695 35.6248H348.823L367.592 1.37402ZM367.782 22.1848H381.378L374.48 9.31622L367.772 22.1848H367.782Z" fill="white" stroke="black" stroke-width="0.319079"/>
<path d="M404.269 1.37402H420.736L440.699 26.259H440.794V1.37402H451.425V35.6248H434.958L414.995 10.7398H414.9V35.6248H404.269V1.37402Z" fill="white" stroke="black" stroke-width="0.319079"/>
<path d="M457.839 13.391C457.839 3.36018 463.533 1 473.112 1H485.609C500.74 1 502.702 4.21247 502.607 13.9154H491.976V12.9695C491.976 10.5063 490.157 9.80385 486.993 9.80385H475.405C469.806 9.80385 468.754 12.4075 468.754 16.6596V20.3497C468.754 25.3136 469.806 27.2055 474.837 27.2055H486.187C490.972 27.2055 492.412 26.7372 492.412 22.4758H503.043V25.6883C503.043 31.4576 500.939 36 490.261 36H473.122C463.543 36 457.849 33.6305 457.849 23.609V13.391H457.839Z" fill="white" stroke="black" stroke-width="0.319079"/>
<path d="M509.457 1.37402H547.384V9.32559H520.088V14.814H545.944V21.9132H520.088V27.4016H548V35.6341H509.457V1.37402V1.37402Z" fill="white" stroke="black" stroke-width="0.319079"/>
</svg>
